<?xml version="1.0" encoding="UTF-8"?>
<!DOCTYPE svg PUBLIC "-//W3C//DTD SVG 1.1//EN" "http://www.w3.org/Graphics/SVG/1.1/DTD/svg11.dtd">
<svg xmlns="http://www.w3.org/2000/svg" version="1.1" width="281px" height="281px" style="shape-rendering:geometricPrecision; text-rendering:geometricPrecision; image-rendering:optimizeQuality; fill-rule:evenodd; clip-rule:evenodd" xmlns:xlink="http://www.w3.org/1999/xlink">
<g><path style="opacity:1" fill="#151615" d="M -0.5,-0.5 C 92.8333,-0.5 186.167,-0.5 279.5,-0.5C 279.5,92.8333 279.5,186.167 279.5,279.5C 186.167,279.5 92.8333,279.5 -0.5,279.5C -0.5,186.167 -0.5,92.8333 -0.5,-0.5 Z"/></g>
<g><path style="opacity:0.502" fill="#000000" d="M 279.5,-0.5 C 279.833,-0.5 280.167,-0.5 280.5,-0.5C 280.5,93.1667 280.5,186.833 280.5,280.5C 186.833,280.5 93.1667,280.5 -0.5,280.5C -0.5,280.167 -0.5,279.833 -0.5,279.5C 92.8333,279.5 186.167,279.5 279.5,279.5C 279.5,186.167 279.5,92.8333 279.5,-0.5 Z"/></g>
</svg>
