<svg width="105" height="27" viewBox="0 0 105 27" fill="none" xmlns="http://www.w3.org/2000/svg">
<path d="M0.0364136 26.7095V0.901497H1.91671V25.0135H16.7747V26.7095H0.0364136ZM32.049 26.8938C30.1318 26.8938 28.3498 26.5743 26.703 25.9352C25.0808 25.2716 23.6552 24.3499 22.4263 23.1701C21.2219 21.9657 20.2879 20.577 19.6243 19.0039C18.9606 17.4063 18.6288 15.6735 18.6288 13.8055C18.6288 11.9375 18.9606 10.2169 19.6243 8.64389C20.2879 7.04625 21.2219 5.65754 22.4263 4.47774C23.6552 3.27337 25.0808 2.35166 26.703 1.71261C28.3498 1.04897 30.1318 0.717155 32.049 0.717155C33.9661 0.717155 35.7358 1.04897 37.358 1.71261C39.0048 2.35166 40.4304 3.26108 41.6348 4.44088C42.8391 5.62067 43.7732 7.00938 44.4368 8.60702C45.125 10.1801 45.4691 11.9129 45.4691 13.8055C45.4691 15.6981 45.125 17.4432 44.4368 19.0408C43.7732 20.6139 42.8391 21.9903 41.6348 23.1701C40.4304 24.3499 39.0048 25.2716 37.358 25.9352C35.7358 26.5743 33.9661 26.8938 32.049 26.8938ZM32.049 25.161C33.6958 25.161 35.2197 24.8783 36.6207 24.313C38.0217 23.7477 39.2383 22.9489 40.2706 21.9166C41.303 20.8842 42.1018 19.6799 42.6671 18.3034C43.257 16.927 43.5519 15.4277 43.5519 13.8055C43.5519 12.1587 43.257 10.6594 42.6671 9.30752C42.1018 7.9311 41.303 6.72673 40.2706 5.69441C39.2383 4.66209 38.0217 3.86327 36.6207 3.29795C35.2197 2.73263 33.6958 2.44998 32.049 2.44998C30.4022 2.44998 28.8783 2.73263 27.4773 3.29795C26.0763 3.86327 24.8473 4.66209 23.7904 5.69441C22.7581 6.72673 21.947 7.9311 21.3571 9.30752C20.7918 10.6594 20.5091 12.1587 20.5091 13.8055C20.5091 15.4277 20.7918 16.927 21.3571 18.3034C21.947 19.6799 22.7581 20.8842 23.7904 21.9166C24.8473 22.9489 26.0763 23.7477 27.4773 24.313C28.8783 24.8783 30.4022 25.161 32.049 25.161ZM63.0145 26.8938C61.0728 26.8938 59.2785 26.5743 57.6317 25.9352C55.9849 25.2716 54.547 24.3499 53.3181 23.1701C52.1137 21.9903 51.1797 20.6139 50.5161 19.0408C49.8524 17.4432 49.5206 15.6981 49.5206 13.8055C49.5206 11.9129 49.8524 10.1801 50.5161 8.60702C51.1797 7.00938 52.126 5.62067 53.3549 4.44088C54.5839 3.26108 56.0095 2.35166 57.6317 1.71261C59.2785 1.04897 61.085 0.717155 63.0514 0.717155C64.9194 0.717155 66.6522 1.0121 68.2498 1.602C69.8475 2.1919 71.2116 3.07674 72.3422 4.25653L71.1624 5.51006C70.0318 4.40401 68.7906 3.61748 67.4387 3.15048C66.1115 2.68348 64.6613 2.44998 63.0882 2.44998C61.4169 2.44998 59.8684 2.73263 58.4428 3.29795C57.0172 3.86327 55.776 4.66209 54.7191 5.69441C53.6622 6.72673 52.8388 7.9311 52.2489 9.30752C51.6836 10.6839 51.4009 12.1833 51.4009 13.8055C51.4009 15.4277 51.6836 16.927 52.2489 18.3034C52.8388 19.6799 53.6622 20.8842 54.7191 21.9166C55.776 22.9489 57.0172 23.7477 58.4428 24.313C59.8684 24.8783 61.4169 25.161 63.0882 25.161C64.6121 25.161 66.05 24.9275 67.4019 24.4605C68.7783 23.9935 70.0318 23.2193 71.1624 22.1378L72.2316 23.5756C71.0764 24.6817 69.6877 25.5174 68.0655 26.0827C66.4679 26.6234 64.7842 26.8938 63.0145 26.8938ZM70.4251 23.3913V13.9161H72.2316V23.5756L70.4251 23.3913ZM91.4563 26.8938C89.5391 26.8938 87.7571 26.5743 86.1103 25.9352C84.4881 25.2716 83.0625 24.3499 81.8336 23.1701C80.6292 21.9657 79.6952 20.577 79.0316 19.0039C78.3679 17.4063 78.0361 15.6735 78.0361 13.8055C78.0361 11.9375 78.3679 10.2169 79.0316 8.64389C79.6952 7.04625 80.6292 5.65754 81.8336 4.47774C83.0625 3.27337 84.4881 2.35166 86.1103 1.71261C87.7571 1.04897 89.5391 0.717155 91.4563 0.717155C93.3734 0.717155 95.1431 1.04897 96.7653 1.71261C98.4121 2.35166 99.8377 3.26108 101.042 4.44088C102.246 5.62067 103.18 7.00938 103.844 8.60702C104.532 10.1801 104.876 11.9129 104.876 13.8055C104.876 15.6981 104.532 17.4432 103.844 19.0408C103.18 20.6139 102.246 21.9903 101.042 23.1701C99.8377 24.3499 98.4121 25.2716 96.7653 25.9352C95.1431 26.5743 93.3734 26.8938 91.4563 26.8938ZM91.4563 25.161C93.1031 25.161 94.627 24.8783 96.028 24.313C97.429 23.7477 98.6456 22.9489 99.6779 21.9166C100.71 20.8842 101.509 19.6799 102.074 18.3034C102.664 16.927 102.959 15.4277 102.959 13.8055C102.959 12.1587 102.664 10.6594 102.074 9.30752C101.509 7.9311 100.71 6.72673 99.6779 5.69441C98.6456 4.66209 97.429 3.86327 96.028 3.29795C94.627 2.73263 93.1031 2.44998 91.4563 2.44998C89.8095 2.44998 88.2856 2.73263 86.8846 3.29795C85.4836 3.86327 84.2546 4.66209 83.1977 5.69441C82.1654 6.72673 81.3543 7.9311 80.7644 9.30752C80.1991 10.6594 79.9164 12.1587 79.9164 13.8055C79.9164 15.4277 80.1991 16.927 80.7644 18.3034C81.3543 19.6799 82.1654 20.8842 83.1977 21.9166C84.2546 22.9489 85.4836 23.7477 86.8846 24.313C88.2856 24.8783 89.8095 25.161 91.4563 25.161Z" fill="white"/>
</svg>
